<svg version="1.1" id="Layer_1" xmlns="http://www.w3.org/2000/svg" xmlns:xlink="http://www.w3.org/1999/xlink" x="0px" y="0px"
	 width="100%" viewBox="0 0 53 52" enable-background="new 0 0 53 52" xml:space="preserve">
<path fill="#010101" opacity="1.000000" stroke="none" 
	d="
M54.000000,18.997187 
	C54.000000,30.664351 54.000000,41.830963 54.000000,52.998180 
	C36.334229,52.998787 18.668457,52.998787 1.002014,52.999393 
	C1.001343,35.667648 1.001343,18.335293 1.000671,1.002204 
	C18.665602,1.001470 36.331203,1.001470 53.998402,1.000735 
	C54.000000,6.832211 54.000000,12.664424 54.000000,18.997187 
M22.558065,35.913536 
	C21.014282,38.466576 19.470499,41.019615 17.521740,44.242386 
	C13.427966,40.041103 9.055145,35.553448 5.156216,31.552126 
	C4.393770,43.505569 4.728684,44.704975 9.832385,46.778877 
	C9.966272,44.439495 10.098506,42.129002 10.230739,39.818508 
	C10.671499,39.805687 11.112260,39.792862 11.553020,39.780037 
	C11.788790,42.390594 12.024560,45.001148 12.294953,47.995064 
	C23.272951,47.995064 34.206341,48.102406 45.131699,47.855042 
	C46.451824,47.825153 48.094826,46.105797 48.929317,44.760712 
	C49.893303,43.206882 50.127071,41.200027 50.706577,39.295650 
	C43.810631,39.304649 45.421562,30.303171 39.217037,28.655525 
	C38.558945,32.132729 37.945515,35.373943 37.330223,38.625011 
	C34.704208,38.272457 32.300865,33.839432 33.021755,30.068485 
	C34.180153,24.008966 34.180153,24.008585 28.349508,24.002157 
	C26.807890,24.000458 25.266266,24.001902 23.936975,24.001902 
	C25.733967,28.219610 25.514088,31.808702 22.558065,35.913536 
M46.680084,8.082623 
	C47.814949,4.748878 46.017490,3.985743 43.180714,3.992342 
	C32.541908,4.017090 21.901182,4.116794 11.265030,3.946982 
	C6.878756,3.876954 5.343156,6.606596 5.106115,9.996599 
	C4.723848,15.463540 5.003405,20.976757 5.003405,27.080004 
	C6.203973,25.271385 7.005369,24.064108 7.806764,22.856829 
	C8.177678,22.975325 8.548592,23.093819 8.919505,23.212315 
	C8.919505,26.398296 8.919505,29.584278 8.919505,32.737225 
	C14.303319,33.417912 19.016479,33.305748 21.824837,28.607756 
	C22.369593,27.696453 20.866375,25.560913 20.198734,23.683243 
	C16.641834,25.888977 20.011539,32.631981 14.038583,30.818541 
	C12.352283,26.903709 10.382943,23.379438 9.371070,19.598900 
	C8.740599,17.243345 8.648556,13.887233 9.892155,12.044763 
	C13.854786,6.173881 20.706701,4.366470 27.131071,7.211686 
	C30.502209,8.704692 33.574276,10.964811 36.592514,13.140539 
	C40.752983,16.139656 43.551933,16.142550 45.951508,12.771365 
	C45.016258,12.042274 44.081013,11.313184 42.921047,10.408910 
	C44.156994,9.656205 45.112881,9.074059 46.680084,8.082623 
M49.009655,13.863076 
	C48.912968,13.392629 48.816280,12.922181 48.666424,12.193039 
	C45.829571,19.640459 43.791893,26.774143 50.362679,33.477058 
	C49.962051,27.213894 49.561420,20.950729 49.009655,13.863076 
z"/>
<path fill="#FFFFFF" opacity="1.000000" stroke="none" 
	d="
M22.756519,35.570866 
	C25.514088,31.808702 25.733967,28.219610 23.936975,24.001902 
	C25.266266,24.001902 26.807890,24.000458 28.349508,24.002157 
	C34.180153,24.008585 34.180153,24.008966 33.021755,30.068485 
	C32.300865,33.839432 34.704208,38.272457 37.330223,38.625011 
	C37.945515,35.373943 38.558945,32.132729 39.217037,28.655525 
	C45.421562,30.303171 43.810631,39.304649 50.706577,39.295650 
	C50.127071,41.200027 49.893303,43.206882 48.929317,44.760712 
	C48.094826,46.105797 46.451824,47.825153 45.131699,47.855042 
	C34.206341,48.102406 23.272951,47.995064 12.294953,47.995064 
	C12.024560,45.001148 11.788790,42.390594 11.553020,39.780037 
	C11.112260,39.792862 10.671499,39.805687 10.230739,39.818508 
	C10.098506,42.129002 9.966272,44.439495 9.832385,46.778877 
	C4.728684,44.704975 4.393770,43.505569 5.156216,31.552126 
	C9.055145,35.553448 13.427966,40.041103 17.521740,44.242386 
	C19.470499,41.019615 21.014282,38.466576 22.756519,35.570866 
z"/>
<path fill="#FFFFFF" opacity="1.000000" stroke="none" 
	d="
M46.374428,8.287268 
	C45.112881,9.074059 44.156994,9.656205 42.921047,10.408910 
	C44.081013,11.313184 45.016258,12.042274 45.950092,12.770700 
	C43.551933,16.142550 40.752983,16.139656 36.592514,13.140539 
	C33.574276,10.964811 30.502209,8.704692 27.131071,7.211686 
	C20.706701,4.366470 13.854786,6.173881 9.892155,12.044763 
	C8.648556,13.887233 8.740599,17.243345 9.371070,19.598900 
	C10.382943,23.379438 12.352283,26.903709 14.038583,30.818541 
	C20.011539,32.631981 16.641834,25.888977 20.198734,23.683243 
	C20.866375,25.560913 22.369593,27.696453 21.824837,28.607756 
	C19.016479,33.305748 14.303319,33.417912 8.919505,32.737225 
	C8.919505,29.584278 8.919505,26.398296 8.919505,23.212315 
	C8.548592,23.093819 8.177678,22.975325 7.806764,22.856829 
	C7.005369,24.064108 6.203973,25.271385 5.003405,27.080004 
	C5.003405,20.976757 4.723848,15.463540 5.106115,9.996599 
	C5.343156,6.606596 6.878756,3.876954 11.265030,3.946982 
	C21.901182,4.116794 32.541908,4.017090 43.180714,3.992342 
	C46.017490,3.985743 47.814949,4.748878 46.374428,8.287268 
z"/>
<path fill="#FFFFFF" opacity="1.000000" stroke="none" 
	d="
M49.085224,14.275320 
	C49.561420,20.950729 49.962051,27.213894 50.362679,33.477058 
	C43.791893,26.774143 45.829571,19.640459 48.666424,12.193039 
	C48.816280,12.922181 48.912968,13.392629 49.085224,14.275320 
z"/>
</svg>